<svg xmlns="http://www.w3.org/2000/svg" viewBox="0 0 150 190"><path fill="#00ff41" fill-rule="evenodd" d="M109.05,123.9l11-.9,0,7-11,.86Zm-.2-16.42,11.09.25,0,7.46-11,.54Zm-.2-15.89,11.18-.1,0,7.55-11.13.77Zm-.18-14.76,11.26-.31,0,7.43-11.21.55ZM45.74,79l58.33-1.11.57,53-58.29.31Zm40.79,35.57L86.37,95.5l-23.43-.31-.47,19.73ZM96.07,74l-.64-11,8-.08-.37,10.94ZM78,63.18l8.59-.08.28,11-8.6.14Zm-17.31.18,8.74-.09.5,11.11-8.6.14Zm-14.87.16,7.44-.08.28,11.2-7.68.12ZM30.27,124.93l11.21-.55.1,6.79-11.26.31Zm-.12-14.62,11.13-.76.1,7.58L30.21,118ZM30,94.11l11-.54.11,8-11.09.53Zm-.12-14,11-.86.1,7-11,.89Zm24.5,67-7.19.13-.29-10.29,7.22-.17Zm16.54-.29L62,146.9l-.6-10.37,9.26-.21Zm16.49-.3-7.87.14-.47-10.45,8.08-.19Zm15.76-.28-7,.13-.61-10.54,7.89-.18Z"/></svg>
