<svg xmlns="http://www.w3.org/2000/svg" viewBox="27 59 96 96"><path fill="#00cc33" fill-rule="evenodd" d="M119.71,74.36c0,.62,0,2.76-.07,6l-6.48.12,0-9.68-12.79,0-.23-7.06c5.77,0,10,0,11.27.12C117.89,64.18,119.94,68.51,119.71,74.36Zm-16,19.19H89.08l-.3-14.94,14.48.21ZM98.94,83l-5.26.94v3.78l5.26.24Zm-5,25.27-15.14.41.52-15.87h5.61l.14,8.6,8.73-.44ZM79.1,84.18l0-5.71,5.71.08-.08,5.83Zm6.53,29.5.23,18.18-7.2.06L79.11,114ZM69.36,78.34l5.44.07L75,95l-6.27.08Zm-21,16.87L48.63,78l16.58.24-.67,17ZM59.66,83l-5.26.94v3.78l5.26.24ZM38,70.54l-.07,11.28L30.8,82c0-4.83.06-8.21.11-9.14.4-6.3,3.05-9.21,8.51-9,1,0,5.37,0,11.41,0l-.08,6.74ZM37.58,140l12.34.05-.08,7c-5,0-8.72-.06-10.23-.12-6.9-.28-9.5-4.68-9.32-10.26.06-1.9.11-4.09.16-6.49l7.19.14Zm10.74-39.24L55,101l-.14,8.35-6.62.18Zm-.2,14.83,15.81-.79V132l-16,.13Zm5,9.94,5.26.23v-5l-5.26.94Zm6.55-16.31-.25-7.91,15.6.52-.35,7Zm15.17,5V132l-6.93.05V114.57ZM95,120.72l-5.2-.31v-6.94l5.11-.25Zm8.86-22,.52,19-5.78-.18L97.4,98.37ZM104.5,124l.21,7.7-14.36.12.56-8.11Zm8.43,7.74,6.57.12c0,2.87,0,5.43,0,7.54,0,5.66-4.33,8.18-11.58,7.89-.93,0-2.67-.07-5-.09l-.22-6.94,10.22,0Z"/></svg>
